<svg width="221" height="221" viewBox="0 0 221 221" fill="none" xmlns="http://www.w3.org/2000/svg">
<g clip-path="url(#clip0_40_283)">
<path d="M144.036 89.9802L140.967 90.3734L145.984 47.8955L149.233 47.4793C151.761 47.1555 152.822 48.518 152.418 51.5668L148.512 84.8196C148.175 87.9208 146.683 89.641 144.036 89.9802Z" fill="white"/>
<path d="M113.157 77.9725L113.663 62.5865L112.76 62.7021L109.636 78.4235L113.157 77.9725Z" fill="white"/>
<path d="M138.734 163.728L135.665 164.121L140.682 121.643L143.932 121.227C146.459 120.903 147.52 122.266 147.116 125.314L143.21 158.567C142.874 161.668 141.382 163.389 138.734 163.728Z" fill="white"/>
<path d="M107.855 151.72L108.361 136.334L107.458 136.45L104.335 152.171L107.855 151.72Z" fill="white"/>
<path fill-rule="evenodd" clip-rule="evenodd" d="M110.755 237.442C180.896 237.442 237.755 180.582 237.755 110.442C237.755 40.3018 180.896 -16.558 110.755 -16.558C40.6152 -16.558 -16.2446 40.3018 -16.2446 110.442C-16.2446 180.582 40.6152 237.442 110.755 237.442ZM50.939 17.4108L34.1096 20.5578L26.7554 135.252L49.1787 132.387L44.294 209.182L50.3752 208.414L60.5424 120.899L38.1694 123.758L50.939 17.4108ZM162.142 38.6697C159.636 36.2995 155.736 35.4536 150.44 36.1319L134.644 38.1554L126.942 103.363L142.829 101.328C148.064 100.657 152.261 98.8043 155.419 95.7697C158.631 92.6672 160.563 88.4135 161.216 83.0087L165.089 50.2188C165.69 44.8818 164.707 41.0321 162.142 38.6697ZM125.804 39.1961L124.962 103.525L112.325 105.143L112.762 89.2158L107.256 89.9211L104.021 106.207L91.3844 107.826L106.037 41.7284L125.804 39.1961ZM72.3569 46.1346L70.9965 88.511L71.8991 88.3954L80.5708 45.0824L96.9986 42.9779L89.2967 108.185L77.6528 109.677L84.1027 66.9237L83.2903 67.0277L72.9592 110.278L64.6551 111.342L64.3352 69.4559L63.5229 69.56L59.8711 111.955L48.3176 113.435L55.9292 48.2391L72.3569 46.1346ZM181.819 127.933L182.731 120.018C182.96 118.46 182.813 117.316 182.292 116.588C181.771 115.86 180.968 115.565 179.885 115.704C178.682 115.858 177.713 116.41 176.978 117.36C176.236 118.251 175.777 119.441 175.601 120.931L175.061 125.312C174.944 126.306 174.931 127.164 175.024 127.886C175.108 128.548 175.4 129.153 175.898 129.701C176.397 130.248 177.109 130.799 178.037 131.353C179.016 131.839 180.342 132.404 182.015 133.046L184.896 134.053C186.501 134.642 187.786 135.364 188.752 136.219C189.778 137.066 190.56 138.159 191.098 139.497C191.629 140.774 191.92 142.327 191.97 144.156C192.081 145.976 191.994 148.159 191.708 150.703L191.532 152.194C190.887 157.658 188.944 162.066 185.703 165.417C182.523 168.761 178.285 170.771 172.99 171.45C167.754 172.12 163.902 171.176 161.434 168.618C159.026 166.052 158.167 161.972 158.857 156.379L159.626 149.492L172.263 147.873L171.35 155.788C171.021 158.949 172.03 160.38 174.377 160.079C175.58 159.925 176.553 159.403 177.296 158.513C178.09 157.555 178.576 156.33 178.752 154.84L179.347 150.176C179.464 149.183 179.481 148.355 179.396 147.693C179.311 147.031 179.02 146.426 178.521 145.879C178.083 145.323 177.404 144.798 176.485 144.305C175.565 143.811 174.333 143.265 172.789 142.668L169.523 141.527C167.919 140.937 166.603 140.219 165.577 139.371C164.604 138.456 163.848 137.33 163.31 135.992C162.771 134.654 162.447 133.075 162.336 131.255C162.277 129.366 162.391 127.15 162.677 124.605L162.897 122.742C163.521 117.586 165.37 113.404 168.446 110.197C171.581 106.981 175.706 105.046 180.821 104.391C186.117 103.713 190.002 104.683 192.479 107.301C195.007 109.852 195.949 113.86 195.303 119.325L194.455 126.314L181.819 127.933ZM156.84 112.417C154.334 110.047 150.434 109.201 145.139 109.879L129.343 111.903L121.641 177.11L137.527 175.075C142.762 174.404 146.959 172.552 150.118 169.517C153.329 166.415 155.261 162.161 155.914 156.756L159.787 123.966C160.388 118.629 159.406 114.78 156.84 112.417ZM120.502 112.944L119.66 177.272L107.024 178.891L107.46 162.963L101.954 163.669L98.7195 179.955L86.0828 181.574L100.735 115.476L120.502 112.944ZM82.3827 117.827L75.9896 171.766L86.3698 170.436L85.0726 181.795L62.0556 184.743L69.746 119.446L82.3827 117.827Z" fill="white"/>
</g>
<defs>
<clipPath id="clip0_40_283">
<rect x="0.755371" y="0.442017" width="220" height="220" rx="110" fill="white"/>
</clipPath>
</defs>
</svg>
